<?xml version="1.0" standalone="no"?>
<!DOCTYPE svg PUBLIC "-//W3C//DTD SVG 20010904//EN"
 "http://www.w3.org/TR/2001/REC-SVG-20010904/DTD/svg10.dtd">
<svg version="1.0" xmlns="http://www.w3.org/2000/svg"
 width="700.000000pt" height="700.000000pt" viewBox="0 0 700.000000 700.000000"
 preserveAspectRatio="xMidYMid meet">
<metadata>
Created by potrace 1.11, written by Peter Selinger 2001-2013
</metadata>
<g transform="translate(0.000000,700.000000) scale(0.100000,-0.100000)"
fill="#000000" stroke="none">
<path d="M3105 6995 c-5 -2 -34 -11 -64 -20 -114 -35 -220 -134 -262 -245 -10
-27 -27 -99 -38 -162 -11 -62 -27 -150 -35 -195 -8 -45 -18 -101 -21 -125 -4
-24 -9 -50 -10 -58 -2 -8 -4 -23 -4 -32 -1 -11 -22 -23 -68 -38 -38 -12 -77
-25 -88 -30 -11 -5 -49 -21 -85 -36 -36 -14 -104 -46 -152 -70 l-87 -43 -113
82 c-376 273 -388 280 -525 284 -58 1 -106 -3 -130 -11 -115 -41 -134 -56
-404 -326 -146 -146 -278 -285 -292 -310 -70 -122 -75 -288 -11 -411 14 -30
62 -102 87 -134 5 -5 60 -82 123 -171 l114 -161 -49 -104 c-27 -57 -68 -158
-91 -224 -23 -66 -45 -127 -49 -134 -8 -16 -38 -26 -108 -36 -25 -3 -80 -12
-122 -20 -42 -8 -94 -17 -116 -20 -106 -15 -226 -45 -273 -69 -104 -53 -195
-173 -222 -291 -13 -59 -13 -743 0 -802 28 -122 118 -236 231 -291 54 -26 107
-39 300 -72 129 -22 252 -42 274 -46 22 -3 40 -6 41 -7 0 -1 22 -60 48 -132
27 -71 72 -178 101 -237 l54 -107 -159 -221 c-177 -247 -201 -294 -206 -411
-3 -88 12 -155 52 -229 40 -73 530 -564 602 -603 81 -44 137 -57 232 -53 117
5 159 26 407 203 115 82 214 152 220 156 7 5 44 -7 85 -27 94 -44 225 -98 310
-126 70 -22 80 -30 85 -65 2 -11 12 -72 23 -135 11 -63 22 -133 25 -155 3 -22
8 -46 11 -53 2 -8 7 -37 10 -65 18 -154 110 -294 233 -357 90 -46 124 -49 511
-49 325 0 372 2 425 18 81 24 112 42 173 96 71 64 120 151 135 242 3 15 22
122 42 238 19 116 37 218 39 228 4 28 15 34 126 72 106 37 163 61 278 117 35
17 69 31 75 31 10 0 111 -65 127 -83 3 -3 34 -25 70 -50 36 -24 70 -48 75 -52
44 -36 148 -107 180 -125 129 -69 285 -68 419 5 76 41 563 532 603 609 58 110
66 240 22 358 -12 31 -78 136 -157 247 -76 106 -147 207 -159 224 l-22 30 31
65 c55 116 104 233 134 319 16 47 30 87 31 89 3 4 154 32 248 46 22 3 54 9 70
11 17 3 44 8 60 10 53 9 59 10 110 18 120 20 245 106 304 210 58 102 60 123
60 529 0 412 -2 436 -64 533 -79 124 -177 181 -360 210 -16 3 -66 12 -110 19
-44 8 -98 18 -120 21 -116 18 -187 32 -194 40 -4 5 -18 41 -31 79 -30 93 -84
223 -130 315 l-38 75 90 125 c108 151 115 161 153 214 68 92 87 127 106 188
36 112 21 244 -36 346 -40 69 -547 573 -605 600 -112 52 -207 64 -310 38 -77
-20 -107 -38 -355 -215 l-195 -139 -113 52 c-108 52 -304 129 -358 141 -22 5
-28 14 -33 48 -12 82 -17 113 -26 162 -5 28 -12 65 -15 83 -3 17 -7 46 -10 62
-3 17 -7 45 -10 63 -31 194 -92 299 -217 374 -96 58 -124 61 -533 61 -203 0
-374 -1 -380 -3z m720 -397 c6 -5 22 -94 80 -437 4 -20 8 -45 10 -56 27 -177
37 -206 86 -251 29 -27 82 -52 126 -60 13 -2 169 -53 243 -79 25 -9 126 -56
225 -105 223 -111 247 -113 367 -27 336 242 447 321 472 334 l28 15 233 -233
c166 -164 232 -237 230 -250 -4 -17 -66 -111 -122 -184 -32 -42 -34 -44 -68
-95 -16 -25 -60 -87 -98 -138 -90 -124 -107 -155 -111 -209 -3 -54 7 -86 56
-174 71 -125 131 -265 187 -437 60 -183 82 -219 145 -246 27 -11 92 -24 256
-51 296 -48 399 -67 418 -75 l22 -10 0 -324 c0 -265 -3 -327 -14 -339 -8 -7
-49 -19 -93 -25 -43 -6 -89 -14 -103 -17 -14 -3 -45 -8 -70 -11 -25 -3 -54 -8
-65 -10 -62 -12 -140 -25 -260 -44 -38 -6 -86 -21 -108 -33 -39 -22 -97 -98
-97 -127 0 -53 -107 -334 -178 -470 -88 -167 -95 -182 -97 -224 -3 -54 13
-100 54 -156 33 -46 98 -137 252 -355 47 -66 88 -129 92 -139 6 -16 -35 -62
-224 -252 -151 -152 -238 -231 -249 -229 -9 2 -126 81 -261 177 -322 229 -309
221 -383 222 -49 0 -69 -5 -102 -26 -49 -31 -248 -128 -324 -158 -67 -26 -138
-50 -251 -85 -93 -28 -141 -63 -165 -121 -7 -17 -22 -89 -34 -160 -11 -71 -23
-140 -25 -154 -3 -14 -16 -94 -30 -177 -27 -163 -33 -184 -49 -195 -6 -4 -153
-7 -327 -7 -358 -1 -341 -4 -353 80 -11 77 -23 149 -31 189 -8 37 -13 69 -21
125 -3 28 -8 59 -10 70 -3 11 -7 35 -10 54 -3 18 -7 41 -9 50 -1 9 -6 36 -10
61 -16 102 -70 154 -195 190 -178 52 -320 109 -488 197 -77 41 -116 55 -155
58 -62 4 -88 -8 -227 -107 -56 -40 -111 -80 -123 -88 -12 -8 -84 -59 -159
-112 -76 -54 -143 -98 -150 -98 -7 0 -116 103 -242 229 -193 193 -228 233
-224 252 3 13 87 139 187 279 101 140 188 266 193 280 6 14 12 47 13 73 4 50
-8 78 -115 272 -38 69 -114 262 -144 367 -14 48 -32 100 -40 115 -29 57 -82
96 -142 108 -52 9 -265 46 -449 76 -99 16 -184 34 -190 40 -12 12 -15 622 -4
656 6 15 19 23 51 28 24 4 52 9 63 11 11 3 36 7 55 10 19 2 46 7 60 9 14 3 43
7 65 11 22 3 47 7 55 9 8 2 35 7 60 10 25 4 64 10 87 16 22 5 65 12 95 15 67
8 131 38 163 76 14 16 38 74 55 131 57 188 82 251 171 433 75 154 89 189 89
231 0 62 -14 85 -233 391 -96 134 -167 242 -167 255 0 15 69 91 228 250 186
185 232 226 248 220 16 -6 217 -146 467 -325 130 -94 179 -96 327 -14 146 79
309 149 465 198 116 36 145 49 176 79 45 44 51 62 88 284 17 99 33 189 35 200
2 11 11 70 21 130 9 61 23 117 31 126 12 13 57 15 338 15 178 -1 327 -4 331
-8z"/>
<path d="M3349 5006 c-2 -2 -30 -7 -63 -11 -85 -9 -235 -49 -342 -91 -230 -89
-457 -258 -625 -464 -67 -83 -146 -209 -180 -285 -12 -28 -30 -68 -40 -91 -30
-67 -77 -243 -93 -344 -13 -91 -15 -361 -2 -435 60 -343 198 -616 431 -850
223 -223 507 -370 820 -424 110 -19 367 -22 455 -7 301 55 527 152 727 313
137 110 348 354 362 418 1 6 9 17 16 25 12 14 57 107 98 205 24 57 65 207 73
263 3 26 10 67 14 92 9 45 6 353 -3 400 -3 14 -8 41 -12 60 -43 238 -156 481
-315 675 -234 286 -561 474 -942 541 -36 7 -374 15 -379 10z m303 -400 c127
-17 328 -86 398 -136 15 -11 31 -20 34 -20 4 0 21 -10 39 -22 144 -101 279
-249 354 -388 62 -114 112 -268 130 -395 12 -85 6 -276 -11 -355 -3 -14 -8
-38 -12 -55 -20 -101 -97 -269 -170 -373 -210 -295 -544 -472 -899 -475 -138
-1 -183 5 -326 44 -73 19 -303 125 -318 146 -3 5 -31 27 -62 51 -356 270 -510
768 -372 1207 53 169 146 321 277 451 184 184 403 293 641 319 33 4 61 8 63
10 4 3 194 -3 234 -9z"/>
</g>
</svg>
