<!-- Generated by IcoMoon.io -->
<svg version="1.1" xmlns="http://www.w3.org/2000/svg" width="1024" height="1024" viewBox="0 0 1024 1024">
<title></title>
<g id="icomoon-ignore">
</g>
<path fill="#000" d="M971.585 404.512c30.589 5.134 52.837 31.444 52.409 62.462v90.056c0 31.017-22.247 57.328-52.837 62.462l-71.874 11.979c-7.274 23.958-17.112 47.274-28.877 69.735l42.355 59.466c17.969 25.241 14.974 59.682-6.845 81.5l-63.746 63.746c-11.979 11.979-27.809 18.61-44.709 18.61-13.261 0-26.097-4.065-36.793-11.765l-59.253-42.355c-22.247 11.765-45.563 21.39-69.735 28.877l-12.194 71.874c-5.134 30.589-31.444 52.837-62.462 52.837h-90.269c-31.017 0-57.328-22.247-62.462-52.837l-11.979-71.874c-23.316-7.274-45.991-16.47-67.595-27.809l-60.108 42.782c-10.695 7.7-23.316 11.765-36.58 11.765-16.899 0-32.728-6.633-44.709-18.61l-63.746-63.746c-22.031-21.819-24.814-56.259-6.845-81.5l42.14-58.611c-11.979-22.247-21.819-45.563-29.306-69.52l-72.729-12.406c-30.589-5.134-52.837-31.444-52.837-62.462v-90.056c0-31.017 22.247-57.328 52.837-62.462l71.019-11.979c7.274-24.172 16.685-47.488 28.451-69.95l-42.782-60.108c-17.969-25.241-14.974-59.682 6.845-81.5l63.959-63.746c11.765-11.979 27.809-18.61 44.709-18.61 13.261 0 26.097 4.065 36.793 11.765l58.824 42.355c22.247-11.979 45.563-21.819 69.52-29.306l12.406-72.729c5.134-30.589 31.444-52.837 62.462-52.837h90.056c31.017 0 57.328 22.247 62.462 52.837l11.979 71.019c25.028 7.487 49.199 17.541 72.302 29.734l59.466-42.355c10.695-7.7 23.316-11.765 36.58-11.765 16.899 0 32.728 6.633 44.709 18.61l63.746 63.746c22.031 21.819 24.814 56.259 6.845 81.5l-42.355 59.253c11.765 22.247 21.39 45.563 28.877 69.735l71.874 12.194zM966.666 557.032h0.213v-90.056c0-2.779-1.925-5.134-4.708-5.562l-89.843-15.187c-11.123-1.712-20.322-10.054-23.102-21.177-8.129-31.444-20.535-61.607-37.222-89.628-5.775-9.84-5.349-22.247 1.283-31.444l52.837-74.227c1.496-2.353 1.283-5.349-0.642-7.274l-63.746-63.746c-1.496-1.496-3.208-1.712-4.065-1.712-1.070 0-2.138 0.429-3.208 1.070l-73.799 53.050c-9.412 6.633-21.606 7.058-31.444 1.283-28.664-16.899-59.466-29.519-91.768-37.647-11.123-2.779-19.466-11.979-21.39-23.316l-14.974-89.202c-0.429-2.779-2.779-4.708-5.562-4.708h-90.056c-2.779 0-5.134 1.925-5.562 4.708l-15.403 90.485c-1.925 11.123-10.267 20.107-21.177 23.102-31.444 8.129-61.607 20.964-89.414 37.647-9.84 5.775-22.247 5.349-31.658-1.283l-73.799-52.622c-0.855-0.642-1.925-1.070-3.208-1.070-1.070 0-2.567 0.213-4.065 1.712l-63.746 63.746c-1.925 1.925-2.138 5.134-0.642 7.274l53.263 74.869c6.633 9.198 7.274 21.39 1.496 31.231-16.47 28.022-28.664 58.396-36.58 89.843-2.779 11.123-11.979 19.466-23.316 21.39l-89.202 14.974c-2.779 0.429-4.708 2.779-4.708 5.562v90.056c0 2.779 1.925 5.134 4.708 5.562l90.485 15.403c11.123 1.925 20.107 10.267 23.102 21.177 8.129 31.444 20.964 61.607 37.647 89.414 5.775 9.84 5.349 22.247-1.283 31.658l-52.622 73.799c-1.496 2.353-1.283 5.349 0.642 7.274l63.746 63.746c1.496 1.496 3.208 1.712 4.065 1.712 1.070 0 2.138-0.429 3.208-1.070l74.869-53.263c4.921-3.636 10.908-5.349 16.685-5.349 4.921 0 10.054 1.283 14.546 3.85 27.594 15.829 57.113 28.022 87.702 35.938 10.908 2.779 19.252 11.765 21.177 23.102l14.974 89.843c0.429 2.779 2.779 4.708 5.562 4.708h90.056c2.779 0 5.134-1.925 5.562-4.708l15.187-89.843c1.712-11.123 10.054-20.322 21.177-23.102 31.444-8.129 61.607-20.535 89.628-37.222 9.84-5.775 22.247-5.349 31.444 1.283l74.227 52.837c0.855 0.642 1.925 1.070 3.208 1.070 1.070 0 2.567-0.213 4.065-1.712l63.746-63.746c1.925-1.925 2.138-5.134 0.642-7.274l-52.837-74.44c-6.633-9.412-7.058-21.606-1.283-31.444 16.685-28.022 29.093-58.183 37.222-89.628 2.779-10.908 11.765-19.252 23.102-21.177l89.843-14.974c2.779-0.429 4.708-2.779 4.708-5.562zM512.109 290.927c121.928 0 220.97 99.041 220.97 220.97s-99.041 220.97-220.97 220.97c-121.928 0-220.97-99.041-220.97-220.97s99.041-220.97 220.97-220.97zM512.109 675.108c90.056 0 163.213-73.157 163.213-163.213s-73.157-163.213-163.213-163.213c-90.056 0-163.213 73.157-163.213 163.213s73.157 163.213 163.213 163.213z"></path>
</svg>
