<!-- Generated by IcoMoon.io -->
<svg version="1.1" xmlns="http://www.w3.org/2000/svg" width="1024" height="1024" viewBox="0 0 1024 1024">
<title></title>
<g id="icomoon-ignore">
</g>
<path fill="#000" d="M821.841 856.925c0 40.961-33.415 72.219-73.297 72.219h-579.907c-40.961 0-73.297-32.337-73.297-72.219v-582.063c0-39.882 33.415-72.219 73.297-72.219h296.421l93.776-93.776h-390.197c-92.699 0-168.151 74.375-168.151 165.996v582.063c0 92.699 75.453 167.074 168.151 167.074h580.985c92.699 0 168.151-74.375 168.151-167.074v-391.276l-93.776 93.776v297.499z"></path>
<path fill="#000" d="M1002.927 153.060l-131.503-130.425c-14.013-14.013-33.415-22.635-52.817-22.635 0 0 0 0 0 0-20.48 0-38.804 7.545-52.817 21.558l-485.052 485.052c-12.935 12.935-20.48 30.181-21.558 48.506l-8.624 139.049c-1.078 21.558 6.467 43.116 21.558 58.206 14.013 14.013 33.415 21.558 52.817 21.558 1.078 0 3.234 0 4.312 0l140.127-8.624c18.323-1.078 35.571-8.624 48.506-21.558l483.975-483.975c14.013-14.013 21.558-33.415 21.558-52.817 1.078-20.48-6.467-39.882-20.48-53.894zM693.574 227.435l104.556 104.556-242.526 241.448-104.556-104.556 242.526-241.448zM456.437 672.605l-111.024 6.467 6.467-111.024 31.259-31.259 104.556 104.556-31.259 31.259zM863.879 264.084l-103.478-103.478 58.206-58.206 104.556 104.556-59.284 57.129z"></path>
</svg>
