<!-- Generated by IcoMoon.io -->
<svg version="1.1" xmlns="http://www.w3.org/2000/svg" width="1024" height="1024" viewBox="0 0 1024 1024">
<title></title>
<g id="icomoon-ignore">
</g>
<path fill="#000" d="M398.882 358.81c-23.46 0-41.399 17.94-41.399 41.399v373.968c0 23.46 17.94 41.399 41.399 41.399 22.080-1.38 40.019-19.32 41.399-41.399v-373.968c-1.38-22.080-19.32-40.019-41.399-41.399z"></path>
<path fill="#000" d="M625.194 358.81c-22.080 1.38-40.019 19.32-41.399 41.399v373.968c1.38 22.080 19.32 40.019 41.399 41.399 23.46 0 41.399-17.94 41.399-41.399v-373.968c0-23.46-17.94-41.399-41.399-41.399z"></path>
<path fill="#000" d="M982.603 154.576h-238.732v-40.019c0-60.717-49.678-110.396-110.396-110.396h-242.873c-60.717 0-110.396 49.678-110.396 110.396v40.019h-238.732c-23.46 0-41.399 17.94-41.399 41.399-1.38 22.080 16.559 40.019 38.639 41.399 1.38 0 1.38 0 2.76 0h73.138l44.158 678.938c2.76 57.959 51.058 104.877 110.396 103.497h485.743c59.337 1.38 107.637-45.538 110.396-103.497l44.158-678.938h73.138c22.080 1.38 40.019-16.559 41.399-38.639 0-1.38 0-1.38 0-2.76 0-23.46-17.94-41.399-41.399-41.399v0zM363.004 114.559c0-15.179 12.419-27.598 27.598-27.598h242.873c15.179 0 27.598 12.419 27.598 27.598v40.019h-298.069v-40.019zM782.51 910.791c0 13.799-11.039 26.218-26.218 26.218 0 0-1.38 0-1.38 0h-485.743c-13.799 1.38-26.218-9.659-27.598-24.84 0 0 0-1.38 0-1.38l-42.778-673.417h626.499l-42.778 673.417z"></path>
</svg>
